<?xml version="1.0" encoding="UTF-8"?>
<svg id="_图层_1" data-name="图层 1" xmlns="http://www.w3.org/2000/svg" viewBox="0 0 101.39 100.01">
  <defs>
    <style>
      .cls-1 {
        fill: #ff9832;
      }

      .cls-1, .cls-2 {
        stroke-width: 0px;
      }

      .cls-2 {
        fill: #fff;
      }
    </style>
  </defs>
  <path class="cls-1" d="M37.49,0h13.13c13.42-.2,26.35,5.05,35.82,14.56,9.72,9.15,15.14,21.96,14.94,35.31.19,13.39-5.25,26.25-15,35.44-9.42,9.56-22.34,14.86-35.76,14.69-13.4.18-26.29-5.13-35.68-14.69C5.23,76.11-.19,63.26,0,49.88V0h21.24v39.11h-.11v10.76c-.12,7.97,2.97,15.65,8.56,21.32,5.39,5.82,13,9.07,20.93,8.93,7.93.14,15.55-3.11,20.94-8.93,5.59-5.67,8.68-13.35,8.56-21.32.13-7.93-2.96-15.57-8.56-21.18-5.43-5.76-13.03-8.96-20.94-8.81h-13.13V0Z"/>
  <path class="cls-2" d="M51.23,64.7c8.15,0,14.76-6.61,14.76-14.76,0-8.15-6.61-14.76-14.76-14.76s-14.76,6.61-14.76,14.76c0,8.15,6.59,14.75,14.74,14.76,0,0,.01,0,.02,0Z"/>
</svg>